{
  "title": "Tammy 2014 READNFO WEBRIP SUB XVID AC3 ACAB",
  "uid": 10588300,
  "size": 1517349502,
  "categoryP": "video",
  "categoryS": "movies",
  "magnet": "?xt=urn:btih:f8abe0a2b2f1f96f087b56b394ea61f93ce8d7c1&amp;dn=Tammy+2014+READNFO+WEBRIP+SUB+XVID+AC3+ACAB&amp;tr=udp%3A%2F%2Ftracker.openbittorrent.com%3A80&amp;tr=udp%3A%2F%2Fopen.demonii.com%3A1337&amp;tr=udp%3A%2F%2Ftracker.coppersurfer.tk%3A6969&amp;tr=udp%3A%2F%2Fexodus.desync.com%3A6969",
  "seeders": 124,
  "leechers": 22,
  "uploader": "xxxlavalxxx",
  "files": -1,
  "time": 1405730785,
  "description": "[IMG]http://i.imgur.com/8xPXpTf.jpg[/IMG]\n\n &lt;a href=&quot;\nhttp://www.imdb.com/title/tt2103254/&quot; rel=&quot;nofollow&quot; target=&quot;_NEW&quot;&gt;\nhttp://www.imdb.com/title/tt2103254/&lt;/a&gt;\n\n\nAfter losing her job and learning that her husband has been unfaithful, a woman hits the road with her profane, hard-drinking grandmother.\n\nDirector: Ben Falcone\nWriters: Melissa McCarthy, Ben Falcone\nStars: Melissa McCarthy, Susan Sarandon, Kathy Bates \nGenres: Comedy\nCountry: USA\nLanguage: English\n\n\nReason For READNFO:\nSource Was Way Too Bright So Managed To Lower The Brightness And Sorted A Few Colours Out. If I De Brightened It Any More It Would be Too Dark In Dark Scenes So Did What Could Be Done. Some Say Source Wasnt In sync So Got The Audio Muxed After The Vid Was Sorted. Added A Bit Of Sharpness So Enjoy...\n\nFormat                                   : AVI\nFormat/Info                              : Audio Video Interleave\nFile size                                : 1.38 GiB\nDuration                                 : 1h 36mn\nOverall bit rate                         : 2 046 Kbps\n\nVideo\nID                                       : 0\nFormat                                   : MPEG-4 Visual\nFormat profile                           : Advanced Simple@L5\nFormat settings, BVOP                    : 2\nFormat settings, QPel                    : No\nFormat settings, GMC                     : No warppoints\nFormat settings, Matrix                  : Default (H.263)\nMuxing mode                              : Packed bitstream\nCodec ID                                 : XVID\nCodec ID/Hint                            : XviD\nDuration                                 : 1h 36mn\nBit rate                                 : 1 847 Kbps\nWidth                                    : 720 pixels\nHeight                                   : 400 pixels\nDisplay aspect ratio                     : 16:9\nFrame rate                               : 23.976 fps\nColor space                              : YUV\nChroma subsampling                       : 4:2:0\nBit depth                                : 8 bits\nScan type                                : Progressive\nCompression mode                         : Lossy\nBits/(Pixel*Frame)                       : 0.267\nStream size                              : 1.25 GiB (90%)\nWriting library                          : XviD 1.2.1 (UTC 2008-12-04)\n\nAudio\nID                                       : 1\nFormat                                   : AC-3\nFormat/Info                              : Audio Coding 3\nMode extension                           : CM (complete main)\nFormat settings, Endianness              : Big\nCodec ID                                 : 2000\nDuration                                 : 1h 36mn\nBit rate mode                            : Constant\nBit rate                                 : 192 Kbps\nChannel(s)                               : 2 channels\nChannel positions                        : Front: L R\nSampling rate                            : 48.0 KHz\nBit depth                                : 16 bits\nCompression mode                         : Lossy\nStream size                              : 133 MiB (9%)\nAlignment                                : Aligned on interleaves\nInterleave, duration                     : 64 ms (1.53 video frames)\nInterleave, preload duration             : 192 ms\nTitle                                    : English\n\n\nscreens\n &lt;a href=&quot;\nhttp://i.imgur.com/IMyEMyU.png&quot; rel=&quot;nofollow&quot; target=&quot;_NEW&quot;&gt;\nhttp://i.imgur.com/IMyEMyU.png&lt;/a&gt; &lt;a href=&quot;\nhttp://i.imgur.com/7tXM54S.png&quot; rel=&quot;nofollow&quot; target=&quot;_NEW&quot;&gt;\nhttp://i.imgur.com/7tXM54S.png&lt;/a&gt; &lt;a href=&quot;\nhttp://i.imgur.com/l5YxLMq.png&quot; rel=&quot;nofollow&quot; target=&quot;_NEW&quot;&gt;\nhttp://i.imgur.com/l5YxLMq.png&lt;/a&gt;",
  "parsed": {
    "xt": "urn:btih:f8abe0a2b2f1f96f087b56b394ea61f93ce8d7c1",
    "dn": "Tammy 2014 READNFO WEBRIP SUB XVID AC3 ACAB",
    "tr": [
      "udp://exodus.desync.com:6969",
      "udp://open.demonii.com:1337",
      "udp://tracker.coppersurfer.tk:6969",
      "udp://tracker.openbittorrent.com:80"
    ],
    "infoHash": "f8abe0a2b2f1f96f087b56b394ea61f93ce8d7c1",
    "infoHashBuffer": {
      "type": "Buffer",
      "data": [
        248,
        171,
        224,
        162,
        178,
        241,
        249,
        111,
        8,
        123,
        86,
        179,
        148,
        234,
        97,
        249,
        60,
        232,
        215,
        193
      ]
    },
    "name": "Tammy 2014 READNFO WEBRIP SUB XVID AC3 ACAB",
    "announce": [
      "udp://exodus.desync.com:6969",
      "udp://open.demonii.com:1337",
      "udp://tracker.coppersurfer.tk:6969",
      "udp://tracker.openbittorrent.com:80"
    ],
    "urlList": []
  },
  "previous": 146,
  "peers": 25,
  "last_updated": "2016-12-25T18:31:25.047Z"
}